<svg width="100" height="100" viewBox="0 0 75 47" fill="none" xmlns="http://www.w3.org/2000/svg">
<mask id="mask0_502_20" style="mask-type:alpha" maskUnits="userSpaceOnUse" x="0" y="0" width="39" height="42">
<path d="M8.6689 21.8882C7.58177 21.6655 6.54919 21.2214 5.63221 20.582C4.71523 19.9427 3.93248 19.1211 3.33025 18.1659C2.72802 17.2107 2.31853 16.1412 2.126 15.0208C1.93348 13.9003 1.96182 12.7516 2.20936 11.6426C2.4569 10.5336 2.9186 9.48675 3.56717 8.56404C4.21574 7.64134 5.03801 6.86147 5.98534 6.27057C6.93268 5.67967 7.98584 5.28973 9.08256 5.1238C10.1793 4.95788 11.2973 5.01935 12.3705 5.30457C13.1459 4.29425 14.1347 3.47781 15.2623 2.91682C16.3899 2.35583 17.627 2.06492 18.8801 2.06604C20.1693 2.06489 21.441 2.37275 22.5938 2.96509C23.7466 3.55743 24.7487 4.41789 25.5202 5.47792C26.5954 5.10359 27.734 4.95985 28.8655 5.05562C29.997 5.15139 31.0973 5.48462 32.0982 6.03466C33.0991 6.58471 33.9792 7.33984 34.6841 8.25328C35.389 9.16671 35.9036 10.219 36.196 11.3449C36.4885 12.4708 36.5525 13.6463 36.3842 14.7987C36.2158 15.951 35.8187 17.0556 35.2174 18.044C34.6161 19.0323 33.8234 19.8834 32.8885 20.5445C31.9536 21.2056 30.8963 21.6626 29.7823 21.8872V37.5244C29.7823 38.0468 29.58 38.5479 29.2201 38.9173C28.8601 39.2867 28.3719 39.4943 27.8629 39.4943H10.5883C10.0792 39.4943 9.59104 39.2867 9.23108 38.9173C8.87113 38.5479 8.6689 38.0468 8.6689 37.5244V21.8882Z" fill="white" stroke="white" stroke-width="3.83879" stroke-linecap="round" stroke-linejoin="round"/>
<path d="M8.66895 28.6598H29.7823M15.3868 22.7501V28.6598" stroke="black" stroke-width="3.83879" stroke-linecap="round" stroke-linejoin="round"/>
<path d="M29.7823 25.705V31.6147M8.66895 25.705V31.6147" stroke="white" stroke-width="3.83879" stroke-linecap="round" stroke-linejoin="round"/>
</mask>
<g mask="url(#mask0_502_20)">
<path d="M-3.80713 -1.87366H42.2584V45.4041H-3.80713V-1.87366Z" fill="#4062BB"/>
</g>
<path d="M40.7488 23.9893C40.9216 23.9893 41.0972 23.9749 41.2757 23.9462C41.4542 23.9116 41.6125 23.8655 41.7507 23.808C41.745 24.1765 41.65 24.4529 41.4657 24.6371C41.2872 24.8156 41.0223 24.9049 40.6711 24.9049C40.5041 24.9049 40.3169 24.8905 40.1097 24.8617C39.9081 24.8329 39.649 24.784 39.3323 24.7149L38.1404 30.26H36.8966L38.1231 24.5421H38.0194C37.4609 24.5421 37.0492 24.6861 36.7843 24.974C36.5252 25.2561 36.3956 25.6938 36.3956 26.2869C36.3956 26.3963 36.4014 26.4913 36.4129 26.5719C36.4302 26.6525 36.4561 26.7302 36.4906 26.8051C36.5021 26.8281 36.5079 26.8454 36.5079 26.8569C36.5137 26.8627 36.5165 26.8684 36.5165 26.8742C36.1941 26.8742 35.958 26.808 35.8083 26.6755C35.6643 26.5373 35.5924 26.3243 35.5924 26.0364C35.5924 25.3512 35.8486 24.807 36.3611 24.4039C36.8793 23.9951 37.6048 23.7907 38.5377 23.7907C38.7277 23.7907 38.9091 23.7993 39.0818 23.8166C39.2603 23.8281 39.4878 23.854 39.7642 23.8943C40.006 23.9346 40.1931 23.9606 40.3256 23.9721C40.4638 23.9836 40.6049 23.9893 40.7488 23.9893ZM41.7978 29.3358C41.7978 29.2322 41.8093 29.1026 41.8323 28.9471C41.8611 28.7917 41.9158 28.5441 41.9964 28.2043C42.077 27.8761 42.1289 27.64 42.1519 27.4961C42.1749 27.3521 42.1864 27.2312 42.1864 27.1333C42.1864 26.9894 42.1577 26.88 42.1001 26.8051C42.0482 26.7302 41.9705 26.6928 41.8669 26.6928C41.7287 26.6928 41.5934 26.7763 41.4609 26.9433C41.3342 27.1045 41.2507 27.2744 41.2104 27.4529L40.6145 30.26H39.3707L40.6231 24.3867L41.9014 24.2139L41.435 26.3905C41.579 26.2293 41.7344 26.1084 41.9014 26.0277C42.0684 25.9471 42.2498 25.9068 42.4456 25.9068C42.7507 25.9068 42.9868 25.9903 43.1538 26.1573C43.3208 26.3243 43.4043 26.5661 43.4043 26.8828C43.4043 27.0153 43.387 27.1736 43.3525 27.3579C43.3237 27.5364 43.2632 27.8128 43.1711 28.1871C43.0962 28.4807 43.0473 28.688 43.0243 28.8089C43.0012 28.9299 42.9897 29.0306 42.9897 29.1113C42.9897 29.2322 43.0185 29.3243 43.0761 29.3876C43.1337 29.4452 43.22 29.474 43.3352 29.474C43.4792 29.474 43.603 29.4251 43.7066 29.3272C43.8103 29.2293 43.9283 29.0249 44.0607 28.7139H44.4235C44.2392 29.2494 44.0147 29.6496 43.7498 29.9145C43.4907 30.1794 43.1797 30.3118 42.817 30.3118C42.4945 30.3118 42.244 30.2255 42.0655 30.0527C41.887 29.8742 41.7978 29.6352 41.7978 29.3358ZM47.1874 26.6928C47.1874 27.1707 46.9917 27.5882 46.6001 27.9452C46.2085 28.2965 45.7421 28.4865 45.2009 28.5153C45.1951 28.6132 45.1893 28.688 45.1836 28.7398C45.1836 28.7859 45.1836 28.8262 45.1836 28.8608C45.1836 29.1256 45.2268 29.3128 45.3131 29.4222C45.4053 29.5316 45.5694 29.5863 45.8055 29.5863C46.0761 29.5863 46.3237 29.5258 46.5483 29.4049C46.7786 29.2782 47.0406 29.0479 47.3343 28.7139H47.6279C47.294 29.2552 46.9312 29.6583 46.5396 29.9232C46.1481 30.1823 45.7191 30.3118 45.2527 30.3118C44.8093 30.3118 44.4724 30.1967 44.2421 29.9663C44.0175 29.736 43.9053 29.3934 43.9053 28.9385C43.9053 28.6103 43.9571 28.2619 44.0607 27.8934C44.1644 27.5249 44.3026 27.1967 44.4753 26.9087C44.6884 26.5633 44.9417 26.3041 45.2354 26.1314C45.5348 25.9529 45.8688 25.8636 46.2373 25.8636C46.554 25.8636 46.7901 25.9327 46.9456 26.0709C47.1068 26.2034 47.1874 26.4107 47.1874 26.6928ZM46.3064 26.3214C46.1107 26.3214 45.912 26.497 45.7105 26.8483C45.5147 27.1938 45.3678 27.6112 45.27 28.1007C45.6039 28.0777 45.8947 27.9251 46.1423 27.6429C46.3957 27.355 46.5224 27.0325 46.5224 26.6755C46.5224 26.5546 46.5051 26.4654 46.4705 26.4078C46.436 26.3502 46.3813 26.3214 46.3064 26.3214Z" fill="#4062BB"/>
<path d="M57.2758 18.4345C57.5829 18.4345 57.8951 18.409 58.2124 18.3578C58.5298 18.2963 58.8113 18.2145 59.057 18.1121C59.0467 18.7672 58.8778 19.2586 58.5502 19.5862C58.2329 19.9035 57.762 20.0622 57.1376 20.0622C56.8407 20.0622 56.508 20.0366 56.1395 19.9854C55.7812 19.9342 55.3205 19.8472 54.7575 19.7244L52.6385 29.5824H50.4274L52.6078 19.4173H52.4235C51.4306 19.4173 50.6986 19.6732 50.2277 20.185C49.7671 20.6866 49.5368 21.4646 49.5368 22.519C49.5368 22.7135 49.547 22.8824 49.5675 23.0257C49.5982 23.1691 49.6442 23.3073 49.7057 23.4403C49.7261 23.4813 49.7364 23.512 49.7364 23.5325C49.7466 23.5427 49.7517 23.5529 49.7517 23.5632C49.1785 23.5632 48.7588 23.4454 48.4926 23.21C48.2367 22.9643 48.1087 22.5856 48.1087 22.0737C48.1087 20.8555 48.5643 19.8882 49.4753 19.1716C50.3967 18.4448 51.6865 18.0814 53.3448 18.0814C53.6827 18.0814 54.0051 18.0967 54.3122 18.1274C54.6296 18.1479 55.0339 18.194 55.5253 18.2656C55.9552 18.3373 56.2879 18.3834 56.5234 18.4038C56.769 18.4243 57.0199 18.4345 57.2758 18.4345ZM59.202 19.8626C59.202 20.2004 59.0792 20.487 58.8335 20.7225C58.598 20.9579 58.3114 21.0756 57.9736 21.0756C57.6358 21.0756 57.3491 20.9579 57.1137 20.7225C56.8783 20.487 56.7605 20.2004 56.7605 19.8626C56.7605 19.5248 56.8783 19.2381 57.1137 19.0027C57.3491 18.757 57.6358 18.6342 57.9736 18.6342C58.3114 18.6342 58.598 18.757 58.8335 19.0027C59.0792 19.2381 59.202 19.5248 59.202 19.8626ZM55.2864 27.8319C55.2864 27.6988 55.2967 27.5504 55.3171 27.3866C55.3376 27.2126 55.3683 27.0283 55.4093 26.8338L56.4534 21.9048H58.6646L57.559 27.1256C57.5385 27.2177 57.5232 27.3047 57.5129 27.3866C57.5027 27.4583 57.4976 27.535 57.4976 27.6169C57.4976 27.8217 57.5436 27.9701 57.6358 28.0622C57.7381 28.1441 57.9019 28.1851 58.1271 28.1851C58.4138 28.1851 58.685 28.0622 58.941 27.8166C59.1969 27.5606 59.3863 27.2331 59.5091 26.8338H60.154C59.8264 27.7654 59.3863 28.4717 58.8335 28.9528C58.2807 29.434 57.646 29.6745 56.9294 29.6745C56.4176 29.6745 56.0132 29.5159 55.7164 29.1985C55.4298 28.8709 55.2864 28.4154 55.2864 27.8319ZM61.4685 27.9855C61.5094 28.0981 61.5811 28.1851 61.6834 28.2465C61.7858 28.3079 61.9086 28.3386 62.0519 28.3386C62.6969 28.3386 63.2138 27.924 63.6028 27.0949C64.0021 26.2657 64.2017 25.3034 64.2017 24.2081C64.2017 23.7884 64.1403 23.471 64.0174 23.2561C63.8946 23.0411 63.7001 22.9336 63.4339 22.9336C63.2497 22.9336 63.0603 23.0053 62.8658 23.1486C62.6713 23.2817 62.5075 23.4608 62.3744 23.686L61.4685 27.9855ZM60.4243 32.8684L58.1057 33.4212L60.67 21.3367H62.8811L62.6354 22.4883C62.8914 22.2733 63.1678 22.1095 63.4646 21.9969C63.7615 21.8843 64.0839 21.828 64.432 21.828C65.0462 21.828 65.512 22.0328 65.8293 22.4422C66.1467 22.8517 66.3053 23.4557 66.3053 24.2542C66.3053 25.8204 65.9675 27.1153 65.2919 28.139C64.6265 29.1627 63.7052 29.6745 62.528 29.6745C62.2004 29.6745 61.924 29.6285 61.6988 29.5363C61.4838 29.4442 61.3251 29.306 61.2228 29.1217L60.4243 32.8684Z" fill="#4062BB"/>
<path d="M37.316 38.592C37.316 39.1231 37.4087 39.507 37.5943 39.7437C37.7798 39.974 38.0709 40.0892 38.4676 40.0892C38.8323 40.0892 39.1778 40.006 39.5041 39.8397C39.8368 39.6669 40.1151 39.4302 40.339 39.1295L40.5597 39.2254C40.3486 39.7693 39.9807 40.2043 39.4561 40.5306C38.9379 40.8505 38.394 41.0105 37.8246 41.0105C37.0824 41.0105 36.545 40.8249 36.2123 40.4539C35.886 40.0764 35.7229 39.475 35.7229 38.6496C35.7229 38.1186 35.79 37.5652 35.9244 36.9893C36.0588 36.4135 36.2443 35.8985 36.481 35.4442C36.7881 34.862 37.1592 34.4206 37.5943 34.1199C38.0357 33.8127 38.5284 33.6592 39.0722 33.6592C39.5841 33.6592 39.9775 33.7712 40.2526 33.9951C40.5342 34.2126 40.6749 34.5293 40.6749 34.9452C40.6749 35.2331 40.6173 35.4538 40.5022 35.6074C40.387 35.7545 40.2207 35.8281 40.0031 35.8281C39.8944 35.8281 39.792 35.8089 39.696 35.7705C39.6064 35.7257 39.5265 35.6618 39.4561 35.5786C39.5713 35.521 39.6736 35.4058 39.7632 35.2331C39.8528 35.054 39.8976 34.8748 39.8976 34.6957C39.8976 34.5101 39.8464 34.3662 39.744 34.2638C39.6416 34.1614 39.4977 34.1103 39.3121 34.1103C39.0306 34.1103 38.7523 34.283 38.4772 34.6285C38.2021 34.9676 37.9622 35.4378 37.7574 36.0392C37.6167 36.4487 37.5079 36.8774 37.4311 37.3252C37.3544 37.7667 37.316 38.189 37.316 38.592ZM43.4299 36.4999V36.5671L43.5355 36.0584H44.9175L44.2265 39.3214C44.2137 39.379 44.2041 39.4334 44.1977 39.4846C44.1913 39.5294 44.1881 39.5773 44.1881 39.6285C44.1881 39.7693 44.2201 39.8748 44.2841 39.9452C44.348 40.0092 44.4472 40.0412 44.5816 40.0412C44.7479 40.0412 44.8983 39.9644 45.0326 39.8109C45.167 39.6509 45.2757 39.427 45.3589 39.1391H45.762C45.5573 39.7277 45.2917 40.1723 44.9654 40.4731C44.6391 40.7674 44.2617 40.9145 43.833 40.9145C43.5579 40.9145 43.3372 40.8377 43.1708 40.6842C43.0109 40.5306 42.9181 40.3131 42.8925 40.0316C42.6942 40.3259 42.4734 40.5466 42.2303 40.6938C41.9936 40.8409 41.7377 40.9145 41.4625 40.9145C41.0659 40.9145 40.7524 40.7802 40.522 40.5114C40.2981 40.2427 40.1861 39.862 40.1861 39.3694C40.1861 39.0111 40.2405 38.6368 40.3493 38.2466C40.4581 37.8563 40.6084 37.5012 40.8003 37.1813C41.0371 36.8038 41.3122 36.5159 41.6257 36.3176C41.9392 36.1128 42.2815 36.0105 42.6526 36.0105C42.9021 36.0105 43.094 36.0552 43.2284 36.1448C43.3627 36.228 43.4299 36.3464 43.4299 36.4999ZM43.3435 36.9702C43.3435 36.8742 43.3084 36.791 43.238 36.7206C43.1676 36.6439 43.0716 36.6055 42.9501 36.6055C42.5982 36.6055 42.2847 36.8998 42.0096 37.4884C41.7409 38.077 41.6065 38.6592 41.6065 39.235C41.6065 39.4846 41.6417 39.6733 41.7121 39.8013C41.7824 39.9228 41.9072 39.9836 42.0863 39.9836C42.2527 39.9836 42.4126 39.9036 42.5662 39.7437C42.7261 39.5837 42.8317 39.3822 42.8829 39.1391L43.3435 36.9702ZM45.2857 39.7629C45.2857 39.6797 45.2921 39.5869 45.3049 39.4846C45.3177 39.3758 45.3368 39.2606 45.3624 39.1391L46.3893 34.331L47.8097 34.139L46.706 39.3214C46.6932 39.379 46.6836 39.4334 46.6772 39.4846C46.6708 39.5294 46.6676 39.5773 46.6676 39.6285C46.6676 39.7565 46.6964 39.8493 46.754 39.9068C46.818 39.958 46.9203 39.9836 47.0611 39.9836C47.2402 39.9836 47.4098 39.9068 47.5697 39.7533C47.7297 39.5933 47.8481 39.3886 47.9248 39.1391H48.3279C48.1232 39.7213 47.8481 40.1628 47.5026 40.4635C47.1571 40.7642 46.7604 40.9145 46.3125 40.9145C45.9926 40.9145 45.7399 40.8153 45.5544 40.617C45.3752 40.4123 45.2857 40.1276 45.2857 39.7629ZM51.4431 36.855C51.4431 37.0725 51.3951 37.2453 51.2991 37.3732C51.2096 37.4948 51.088 37.5556 50.9345 37.5556C50.8833 37.5556 50.8289 37.546 50.7713 37.5268C50.7137 37.5076 50.6561 37.4788 50.5986 37.4404C50.637 37.338 50.6657 37.2389 50.6849 37.1429C50.7041 37.0469 50.7137 36.9574 50.7137 36.8742C50.7137 36.7462 50.6913 36.6503 50.6466 36.5863C50.6018 36.5159 50.5346 36.4807 50.445 36.4807C50.1635 36.4807 49.8884 36.807 49.6197 37.4596C49.351 38.1058 49.2166 38.72 49.2166 39.3022C49.2166 39.5965 49.2646 39.8045 49.3606 39.926C49.4629 40.0476 49.6453 40.1084 49.9076 40.1084C50.2083 40.1084 50.4834 40.0412 50.7329 39.9068C50.9888 39.7661 51.28 39.5102 51.6063 39.1391H51.9325C51.5615 39.7405 51.1584 40.1883 50.7233 40.4827C50.2883 40.7706 49.8116 40.9145 49.2934 40.9145C48.8007 40.9145 48.4265 40.7866 48.1705 40.5306C47.921 40.2747 47.7962 39.894 47.7962 39.3886C47.7962 39.0239 47.8506 38.6368 47.9594 38.2274C48.0746 37.8179 48.2313 37.4532 48.4296 37.1333C48.6664 36.7494 48.9479 36.4615 49.2742 36.2696C49.6069 36.0712 49.9748 35.9721 50.3778 35.9721C50.7297 35.9721 50.9952 36.0488 51.1744 36.2024C51.3535 36.3496 51.4431 36.5671 51.4431 36.855ZM53.2163 39.9836C53.3826 39.9836 53.5298 39.9132 53.6578 39.7725C53.7921 39.6253 53.9009 39.4142 53.9841 39.1391L54.6366 36.0584H56.0186L55.3276 39.3214C55.3148 39.379 55.3052 39.4334 55.2988 39.4846C55.2924 39.5294 55.2892 39.5773 55.2892 39.6285C55.2892 39.7565 55.318 39.8493 55.3756 39.9068C55.4396 39.958 55.542 39.9836 55.6827 39.9836C55.8491 39.9836 55.9994 39.91 56.1338 39.7629C56.2681 39.6157 56.3769 39.4078 56.4601 39.1391H56.8631C56.6584 39.7277 56.3929 40.1723 56.0666 40.4731C55.7403 40.7674 55.3628 40.9145 54.9342 40.9145C54.659 40.9145 54.4383 40.8377 54.272 40.6842C54.1056 40.5242 54.0096 40.2971 53.9841 40.0028C53.7985 40.3099 53.5874 40.5402 53.3507 40.6938C53.1203 40.8409 52.858 40.9145 52.5637 40.9145C52.2438 40.9145 51.9911 40.8153 51.8055 40.617C51.6264 40.4123 51.5368 40.1276 51.5368 39.7629C51.5368 39.6797 51.5432 39.5869 51.556 39.4846C51.5688 39.3758 51.588 39.2606 51.6136 39.1391L52.2662 36.0584H53.6482L52.9572 39.3214C52.9444 39.3726 52.9348 39.4206 52.9284 39.4654C52.9284 39.5038 52.9284 39.5453 52.9284 39.5901C52.9284 39.7181 52.9508 39.8173 52.9956 39.8876C53.0467 39.9516 53.1203 39.9836 53.2163 39.9836ZM56.3822 39.7629C56.3822 39.6797 56.3886 39.5869 56.4014 39.4846C56.4142 39.3758 56.4334 39.2606 56.459 39.1391L57.4858 34.331L58.9062 34.139L57.8025 39.3214C57.7897 39.379 57.7801 39.4334 57.7737 39.4846C57.7673 39.5294 57.7641 39.5773 57.7641 39.6285C57.7641 39.7565 57.7929 39.8493 57.8505 39.9068C57.9145 39.958 58.0169 39.9836 58.1576 39.9836C58.3368 39.9836 58.5063 39.9068 58.6663 39.7533C58.8262 39.5933 58.9446 39.3886 59.0213 39.1391H59.4244C59.2197 39.7213 58.9446 40.1628 58.5991 40.4635C58.2536 40.7642 57.8569 40.9145 57.4091 40.9145C57.0892 40.9145 56.8364 40.8153 56.6509 40.617C56.4717 40.4123 56.3822 40.1276 56.3822 39.7629ZM61.8929 36.4999V36.5671L61.9984 36.0584H63.3804L62.6894 39.3214C62.6766 39.379 62.667 39.4334 62.6606 39.4846C62.6542 39.5294 62.651 39.5773 62.651 39.6285C62.651 39.7693 62.683 39.8748 62.747 39.9452C62.811 40.0092 62.9101 40.0412 63.0445 40.0412C63.2109 40.0412 63.3612 39.9644 63.4956 39.8109C63.6299 39.6509 63.7387 39.427 63.8219 39.1391H64.2249C64.0202 39.7277 63.7547 40.1723 63.4284 40.4731C63.1021 40.7674 62.7246 40.9145 62.2959 40.9145C62.0208 40.9145 61.8001 40.8377 61.6337 40.6842C61.4738 40.5306 61.381 40.3131 61.3554 40.0316C61.1571 40.3259 60.9364 40.5466 60.6932 40.6938C60.4565 40.8409 60.2006 40.9145 59.9255 40.9145C59.5288 40.9145 59.2153 40.7802 58.985 40.5114C58.761 40.2427 58.6491 39.862 58.6491 39.3694C58.6491 39.0111 58.7035 38.6368 58.8122 38.2466C58.921 37.8563 59.0714 37.5012 59.2633 37.1813C59.5 36.8038 59.7751 36.5159 60.0886 36.3176C60.4021 36.1128 60.7444 36.0105 61.1155 36.0105C61.365 36.0105 61.557 36.0552 61.6913 36.1448C61.8257 36.228 61.8929 36.3464 61.8929 36.4999ZM61.8065 36.9702C61.8065 36.8742 61.7713 36.791 61.7009 36.7206C61.6305 36.6439 61.5346 36.6055 61.413 36.6055C61.0611 36.6055 60.7476 36.8998 60.4725 37.4884C60.2038 38.077 60.0694 38.6592 60.0694 39.235C60.0694 39.4846 60.1046 39.6733 60.175 39.8013C60.2454 39.9228 60.3701 39.9836 60.5493 39.9836C60.7156 39.9836 60.8756 39.9036 61.0291 39.7437C61.1891 39.5837 61.2947 39.3822 61.3458 39.1391L61.8065 36.9702ZM64.1706 36.0584H64.4873L64.7753 34.7341L66.1956 34.5421L65.8693 36.0584H66.4451L66.3684 36.4423H65.7925L65.1783 39.3214C65.1655 39.379 65.1559 39.4334 65.1495 39.4846C65.1431 39.5294 65.1399 39.5773 65.1399 39.6285C65.1399 39.7565 65.1687 39.8493 65.2263 39.9068C65.2903 39.958 65.3927 39.9836 65.5334 39.9836C65.7126 39.9836 65.8821 39.9068 66.0421 39.7533C66.202 39.5933 66.3204 39.3886 66.3971 39.1391H66.8002C66.5955 39.7213 66.3204 40.1628 65.9749 40.4635C65.6294 40.7642 65.2327 40.9145 64.7849 40.9145C64.465 40.9145 64.2122 40.8153 64.0267 40.617C63.8476 40.4123 63.758 40.1276 63.758 39.7629C63.758 39.6797 63.7644 39.5869 63.7772 39.4846C63.79 39.3758 63.8092 39.2606 63.8348 39.1391L64.4106 36.4423H64.0939L64.1706 36.0584ZM66.1371 39.379C66.1371 39.0143 66.1947 38.6272 66.3099 38.2178C66.4314 37.8083 66.5946 37.4436 66.7993 37.1237C67.036 36.7462 67.3208 36.4615 67.6535 36.2696C67.9861 36.0712 68.3572 35.9721 68.7667 35.9721C69.1762 35.9721 69.4833 36.1 69.688 36.3559C69.8927 36.6119 69.9951 36.9957 69.9951 37.5076C70.0079 37.514 70.0207 37.5204 70.0335 37.5268C70.0527 37.5268 70.0751 37.5268 70.1007 37.5268C70.299 37.5268 70.5357 37.4724 70.8109 37.3636C71.086 37.2549 71.3419 37.1173 71.5786 36.951L71.665 37.2101C71.4858 37.402 71.2459 37.5684 70.9452 37.7091C70.6509 37.8499 70.3246 37.949 69.9663 38.0066C69.8896 38.8704 69.64 39.5677 69.2178 40.0988C68.7955 40.6298 68.2805 40.8953 67.6726 40.8953C67.1736 40.8953 66.7929 40.7674 66.5306 40.5114C66.2683 40.2555 66.1371 39.878 66.1371 39.379ZM68.8435 36.5575C68.5364 36.5575 68.2453 36.8678 67.9702 37.4884C67.7014 38.109 67.5671 38.6976 67.5671 39.2542C67.5671 39.5549 67.5991 39.7597 67.6631 39.8684C67.7334 39.9772 67.8646 40.0316 68.0565 40.0316C68.2933 40.0316 68.5172 39.8397 68.7283 39.4558C68.9458 39.0719 69.093 38.5984 69.1698 38.0354C69.0802 38.0162 69.013 37.9746 68.9682 37.9107C68.9299 37.8403 68.9107 37.7475 68.9107 37.6323C68.9107 37.5108 68.9363 37.4052 68.9874 37.3156C69.0386 37.2261 69.1122 37.1589 69.2082 37.1141C69.1954 36.9094 69.1602 36.7654 69.1026 36.6822C69.0514 36.5991 68.965 36.5575 68.8435 36.5575ZM71.5062 40.8569H70.1242L71.1415 36.0584H72.5235L72.3987 36.6535C72.6802 36.4167 72.901 36.26 73.0609 36.1832C73.2272 36.1 73.3936 36.0584 73.5599 36.0584C73.7583 36.0584 73.9182 36.1288 74.0398 36.2696C74.1614 36.4039 74.2221 36.5735 74.2221 36.7782C74.2221 36.9766 74.1582 37.1429 74.0302 37.2773C73.9022 37.4116 73.7359 37.4788 73.5312 37.4788C73.4224 37.4788 73.336 37.4532 73.272 37.402C73.2145 37.3508 73.1729 37.2453 73.1473 37.0853C73.1281 36.983 73.1057 36.919 73.0801 36.8934C73.0545 36.8614 73.0193 36.8454 72.9745 36.8454C72.8658 36.8454 72.7634 36.8678 72.6674 36.9126C72.5715 36.9574 72.4403 37.0565 72.2739 37.2101L71.5062 40.8569Z" fill="#4062BB"/>
</svg>
